<svg xmlns="http://www.w3.org/2000/svg" viewBox="0 0 250 250" height="250" width="250">
  
  
  
<g transform="matrix(0.625,0,0,0.625,0,0)"><g transform="matrix(2,0,0,2,0,0)"><title>developer-desk</title><g>
    <path d="M108.08,95.58c-1.9.89-19.8.85-20.89,0-1.14-.42-1.54-.69-1.55-1.55a4,4,0,0,1,3-3.9,38.41,38.41,0,0,1,17.84,0,4,4,0,0,1,3.11,3.94C109.64,94.87,109,95.23,108.08,95.58Z" style="fill: #f08080"></path>
    <path d="M110.09,94.08a4.52,4.52,0,0,0-3.49-4.43,39.44,39.44,0,0,0-18.08,0A4.5,4.5,0,0,0,85.14,94c0,1.22.77,1.61,1.85,2,2,1,19.09.88,21.27,0C108.94,95.8,110.17,95.35,110.09,94.08Zm-2.18,1c-2,.76-19,.86-20.54,0-1.17-.43-1.23-.6-1.23-1.08a3.49,3.49,0,0,1,2.62-3.41,38.51,38.51,0,0,1,17.61,0,3.51,3.51,0,0,1,2.72,3.48C109.12,94.49,108.94,94.72,107.91,95.11Z" style="fill: #5e503b"></path>
    <rect x="94.9" y="81.69" width="5.47" height="8.83" rx="0.72" ry="0.72" style="fill: #f08080"></rect>
    <path d="M99.65,81.19h-4a1.22,1.22,0,0,0-1.22,1.22V89.8A1.22,1.22,0,0,0,95.62,91h4a1.22,1.22,0,0,0,1.22-1.22V82.41A1.22,1.22,0,0,0,99.65,81.19Zm.22,8.61a.22.22,0,0,1-.22.22h-4a.22.22,0,0,1-.22-.22V82.41a.22.22,0,0,1,.22-.22h4a.22.22,0,0,1,.22.22Z" style="fill: #5e503b"></path>
    <path d="M58,36.57h84.24A3,3,0,0,1,145,38.4c-.07-1.66-2.6-4.35-4.23-4.35H59.18c-1.39,0-3.37,2.52-3.87,4.26A3,3,0,0,1,58,36.57Z" style="fill: #f08080"></path>
    <rect x="55.03" y="36.57" width="90.2" height="48" rx="2.98" ry="2.98" style="fill: #f08080"></rect>
    <path d="M140.77,33.55H59.18c-2,0-4.65,3.93-4.65,6v42A3.48,3.48,0,0,0,58,85.07h84.24a3.48,3.48,0,0,0,3.48-3.48v-42C145.73,36.38,142.6,33.55,140.77,33.55Zm-81.59,1h81.59a4.45,4.45,0,0,1,2.61,1.71c-.85-.29,4.73-.19-85.37-.19a3.74,3.74,0,0,0-1,.15C57.71,35.3,58.56,34.55,59.18,34.55Zm85.55,47a2.48,2.48,0,0,1-2.48,2.48H58a2.49,2.49,0,0,1-2.48-2.48v-42A2.49,2.49,0,0,1,58,37.07h84.24a2.48,2.48,0,0,1,2.48,2.48Z" style="fill: #5e503b"></path>
    <rect x="58.68" y="39.55" width="82.9" height="42.62" rx="2.65" ry="2.65" style="fill: #f08080"></rect>
    <path d="M138.93,39.05H61.33a3.16,3.16,0,0,0-3.15,3.15V79.52a3.16,3.16,0,0,0,3.15,3.15h77.6a3.15,3.15,0,0,0,3.15-3.15V42.2A3.15,3.15,0,0,0,138.93,39.05Zm2.15,40.47a2.15,2.15,0,0,1-2.15,2.15H61.33a2.15,2.15,0,0,1-2.15-2.15V42.2a2.16,2.16,0,0,1,2.15-2.15h77.6a2.15,2.15,0,0,1,2.15,2.15Z" style="fill: #5e503b"></path>
    <circle cx="113.76" cy="59.54" r="5.2" style="fill: #ffcecc"></circle>
    <circle cx="110.63" cy="55.55" r="2.54" style="fill: #5e503b"></circle>
    <circle cx="83.65" cy="59.76" r="5.2" style="fill: #ffcecc"></circle>
    <path d="M87,52.72a2.54,2.54,0,1,0,2.54,2.54A2.54,2.54,0,0,0,87,52.72Z" style="fill: #5e503b"></path>
    <polygon points="55.98 120.09 55.98 117.45 139.31 117.45 139.31 120.09 55.98 120.09" style="fill: #f08080"></polygon>
    <path d="M139.31,117H56c-.27,0-.5.47-.5.74v2.59c0,.57.4.31.5.31h83.34c.27,0,.5-.41.5-.69v-2.43C139.82,116.86,139.41,117,139.31,117Zm-.5,2.64H56.48V118h82.33Z" style="fill: #5e503b"></path>
    <polygon points="55.98 117.45 65.78 100.56 132.69 100.56 139.31 117.45 55.98 117.45" style="fill: #f08080"></polygon>
    <path d="M139.78,117.13l-6.62-16.71a.55.55,0,0,0-.47-.36H65.78a.46.46,0,0,0-.43.2l-9.8,17.18c-.32.57.18.56.41.56,2.08.07,14.24.1,83.36,0A.82.82,0,0,0,139.78,117.13ZM56.85,117l9.22-15.94h66.28L138.58,117Z" style="fill: #5e503b"></path>
    <path d="M175.26,144.09S36.35,143.65,21.49,143a2,2,0,0,1-1.7-2.91l7.26-11.45c1.35-2.42,2.11-3.38,3.84-3.38H166.54a2.38,2.38,0,0,1,2.1,1.27l8.72,14.09A2.37,2.37,0,0,1,175.26,144.09Z" style="fill: #abffe1"></path>
    <path d="M177.79,140.38l-8.7-14.06a2.88,2.88,0,0,0-2.55-1.54H30.89c-2,0-2.89,1.17-4.26,3.61l-7.28,11.49a2.5,2.5,0,0,0,2.12,3.64c14.7.65,153.8,1.07,153.8,1.07A2.87,2.87,0,0,0,177.79,140.38Zm-2.53,3.21s-139.06-.42-153.75-1.07a1.5,1.5,0,0,1-1.29-2.14l7.27-11.47c1.33-2.39,2-3.13,3.4-3.13H166.54a1.89,1.89,0,0,1,1.68,1l8.7,14.05A1.87,1.87,0,0,1,175.26,143.59Z" style="fill: #5e503b"></path>
    <path d="M161.33,128.24a9.53,9.53,0,0,1,4.68,2.17c2.91,2.44,4.42,9.22-.12,10-6.4,1.11-12.86-5.23-9.14-10.72C157.94,127.94,159.38,127.94,161.33,128.24Z" style="fill: #f08080"></path>
    <path d="M168.8,133.93a9.19,9.19,0,0,0-.54-1.3c-2.52-4.92-8.83-6-11-4.26a6,6,0,0,0-2.11,4c-.51,4.33,3.73,8.22,8.43,8.64a6.2,6.2,0,0,0,4-.75C169.58,138.86,169.48,136,168.8,133.93Zm-6.65-3.68a5.57,5.57,0,0,0-1.43-1.55,8.14,8.14,0,0,1,5,2.19A8,8,0,0,0,162.15,130.25Zm-3.26-1.36a7,7,0,0,1,2.14,1.5c-2.68.55-4.2,1.93-4.83,3.53C155.93,132,156.69,129.5,158.89,128.89Zm8.79,9.93A3.32,3.32,0,0,1,165,140a8.59,8.59,0,0,1-8.2-4.34c.07-2.77,3.3-5.23,7.86-4.16a5.31,5.31,0,0,1,2.78,1.72l0,0C168.25,134.88,168.79,137.24,167.68,138.82Z" style="fill: #5e503b"></path>
    <path d="M112,103.88a.5.5,0,0,0-.5-.46H69.62a.51.51,0,0,0-.45.29l-4,8.78a.5.5,0,0,0,.45.71c49.9,0,46.8.09,47-.16a.48.48,0,0,0,.13-.38Zm-35.9,8.32.6-1.88h24.92l-.09,1.88Zm-4.62,0,.72-1.88h3.45l-.6,1.88Zm-2.87-4.91c.1,0-.2,0,3.68,0l-.78,2H67.69Zm4.75,0h3.27l-.65,2H72.6Zm4.2-2.88L77,106.3H73.76l.72-1.88Zm4.23,0-.42,1.88H78l.61-1.88Zm4.15,0-.26,1.88H82.41l.42-1.88Zm4.33,0-.23,1.88H86.71l.26-1.88Zm3.77,0-.13,1.88H91.07l.22-1.88Zm3.56,0-.1,1.88H94.93l.13-1.88Zm4.32,0-.1,1.88H98.53l.1-1.88Zm4.76,0v1.88h-3.86l.1-1.88Zm-16,4.9.24-2h2.91l-.13,2Zm-13.66,0,.65-2h3.46l-.45,2Zm5.14-2h3.37l-.28,2H81.74Zm4.38,0H90l-.24,2H86.29Zm8.3,0h2.6l-.11,2H94.73Zm3.6,0h3.32l-.1,2H98.37Zm4.17,3h4v1.88h-4.11Zm0-1,.1-2h3.89v2Zm5-2h3.62l.16,2h-3.78Zm3.54-1H107.7v-1.88h3.36Zm-41.28-1.88h3.47l-.72,1.88H69.08Zm-2.69,5.85c.15.07-.09,0,3.9,0l-.72,1.88H66.36Zm40.41,1.93v-1.88h3.89l.15,1.88Z" style="fill: #5e503b"></path>
    <path d="M131.73,112.55l-2.74-8.5a.51.51,0,0,0-.48-.35l-12.38.15a.51.51,0,0,0-.49.58l1.29,8.35a.5.5,0,0,0,.49.42h13.83A.5.5,0,0,0,131.73,112.55Zm-9.55-.35-.43-2h3.81l.56,2Zm-.65-3-.43-2h3.61l.57,2Zm-4.14,0-.32-2h3l.43,2Zm6.65-4.42.39,1.39h-3.54l-.29-1.35Zm1.71,2.39h3.19l.65,2h-3.27Zm2.87-1h-3.15l-.4-1.41,3.08,0Zm-9-1.34.29,1.34h-3l-.2-1.31Zm-2,5.37h3.19l.43,2h-3.31Zm9.62,2-.56-2c3.31,0,3.14,0,3.3-.06l.67,2.08Z" style="fill: #5e503b"></path>
    <path d="M22.24,44.58c7.23-2,14.92-3.25,21.6-4.66a2.11,2.11,0,0,1,2.36,2.53c-4.43,31.13-2.47,51.23-1.63,56.76a2.25,2.25,0,0,1-1.07,2.3c-4.32,2.52-14,7-23,12.06a2,2,0,0,1-3-1.52C14.39,93.41,16,66.15,20.77,46.12A2.1,2.1,0,0,1,22.24,44.58Z" style="fill: #f08080"></path>
    <path d="M43.74,39.43c-1.91.41-3.91.81-6,1.22C25.36,43.14,22,44.13,22.11,44.1A2.59,2.59,0,0,0,20.29,46c-5,20.57-6.35,47.76-3.28,66.1A2.5,2.5,0,0,0,20.75,114c8.63-4.76,18.81-9.69,23-12.07a2.74,2.74,0,0,0,1.31-2.8c-.54-3.74-3-24.07,1.62-56.58A2.62,2.62,0,0,0,43.74,39.43Zm2,3c-4.65,32.69-2.18,53.14-1.63,56.91a1.75,1.75,0,0,1-.82,1.79c-3.92,2.21-14.41,7.32-23,12.06A1.49,1.49,0,0,1,18,112C15,93.72,16.29,66.69,21.26,46.24a1.6,1.6,0,0,1,1.12-1.18c7.19-1.86,15.09-3.28,21.53-4.64A1.61,1.61,0,0,1,45.71,42.38Z" style="fill: #5e503b"></path>
    <path d="M16.8,120.49a3,3,0,0,1-2.94-2.41c-3.86-20.53-2.23-53,3.78-75.52a3,3,0,0,1,2.2-2.11c8.88-2.08,18.08-3.57,26.67-5.21A3,3,0,0,1,50,38.67C44.25,75,47.34,97.77,48,102A3,3,0,0,1,46.41,105C17.37,120.06,18.56,120.49,16.8,120.49Zm3.27-79.07a2,2,0,0,0-1.46,1.41c-6,22.39-7.6,54.66-3.77,75.06a2,2,0,0,0,2.92,1.34c10.18-5.68,21-11.35,28.19-15.09a2,2,0,0,0,1.08-2C46.35,97.9,43.24,75,49,38.5a2,2,0,0,0-2.33-2.28C38.13,37.86,28.92,39.35,20.07,41.42Z" style="fill: #5e503b"></path>
    <path d="M177.77,44.36c-7.26-1.87-14.92-3.25-21.6-4.66a2.12,2.12,0,0,0-2.4,2.53c4.47,31.12,2.47,51.26,1.64,56.8a2.28,2.28,0,0,0,1.06,2.3c4.32,2.53,14.07,6.94,23,12a2,2,0,0,0,3-1.51c3.17-18.64,1.67-45.92-3.19-65.93A2.08,2.08,0,0,0,177.77,44.36Z" style="fill: #f08080"></path>
    <path d="M179.77,45.77a2.58,2.58,0,0,0-1.87-1.89c-7.28-1.89-14.83-3.24-21.65-4.67a2.61,2.61,0,0,0-3,3.09c4.46,31.09,2.38,51.23,1.64,56.65a2.74,2.74,0,0,0,1.31,2.82c3.14,1.84,13.86,7,23,12a2.5,2.5,0,0,0,3.75-1.85C186.08,93.61,184.76,66.42,179.77,45.77Zm2.21,66a1.5,1.5,0,0,1-2.27,1.12c-8.94-4.9-20-10.23-23-12a1.75,1.75,0,0,1-.82-1.81c.75-5.47,2.84-25.73-1.65-57a1.62,1.62,0,0,1,1.81-1.94c6.78,1.43,14.21,2.75,21.58,4.66A1.58,1.58,0,0,1,178.8,46C183.76,66.54,185.07,93.56,182,111.77Z" style="fill: #5e503b"></path>
    <path d="M182.37,42.39a3,3,0,0,0-2.19-2.12c-8.6-2.06-17.6-3.48-26.66-5.21a3,3,0,0,0-3.51,3.4c5.76,36.35,2.68,59.12,2,63.32a3,3,0,0,0,1.58,3.09c28.28,14.54,27.77,15.45,29.61,15.45a3,3,0,0,0,2.93-2.42C190,97.37,188.38,64.91,182.37,42.39Zm2.78,75.33a2,2,0,0,1-2.91,1.35C169.53,112,156.52,105.25,154,104a2,2,0,0,1-1-2c.68-4.22,3.78-27.13-2-63.63A2,2,0,0,1,153,36c.33,0-.31-.07,7.61,1.37,6.38,1.16,13,2.35,19.39,3.86a2,2,0,0,1,1.45,1.41C187.38,65,189,97.32,185.15,117.72Z" style="fill: #5e503b"></path>
    <path d="M22.67,51.58l2-.61a.52.52,0,0,0,.37-.63A.53.53,0,0,0,24.4,50l-2,.6a.52.52,0,0,0,.26,1Z" style="fill: #f08080"></path>
    <path d="M22.42,55.47l8.3-1.7c.63-.13.36-1.1-.27-1l-8.29,1.7C21.53,54.6,21.79,55.57,22.42,55.47Z" style="fill: #f08080"></path>
    <path d="M21.46,60a31.14,31.14,0,0,1,6.42-1.75.5.5,0,0,0,.35-.61.52.52,0,0,0-.62-.35,31,31,0,0,0-6.41,1.74.52.52,0,0,0-.35.62A.5.5,0,0,0,21.46,60Z" style="fill: #f08080"></path>
    <path d="M37.07,59.6a.51.51,0,0,0,.37-.63.52.52,0,0,0-.63-.37C31.48,60,26.19,61.5,21,63.19a.52.52,0,0,0,.27,1C21.23,64.29,26.64,62.33,37.07,59.6Z" style="fill: #f08080"></path>
    <path d="M21.23,68.24l8.89-3c.61-.2.35-1.17-.27-1l-8.89,3C20.36,67.44,20.62,68.41,21.23,68.24Z" style="fill: #f08080"></path>
    <path d="M38.18,68.08a.52.52,0,0,0,.37-.63.53.53,0,0,0-.64-.37L20.37,71.8a.52.52,0,0,0,.26,1C20.63,72.7,19.86,73,38.18,68.08Z" style="fill: #f08080"></path>
    <path d="M20.35,77.39l13-3c.63-.14.36-1.11-.26-1l-13,3C19.46,76.54,19.72,77.5,20.35,77.39Z" style="fill: #f08080"></path>
    <path d="M20.08,82.94A55.09,55.09,0,0,1,27.87,81c.63-.11.37-1.09-.26-1a47.89,47.89,0,0,0-7.79,2c-.61.2-.35,1.16.26,1Z" style="fill: #f08080"></path>
    <path d="M29.82,77.58v2.3a.5.5,0,0,0,.5.5.5.5,0,0,0,.5-.5v-2.3a.5.5,0,0,0-.5-.5A.51.51,0,0,0,29.82,77.58Z" style="fill: #f08080"></path>
    <path d="M158.93,47.5a112.59,112.59,0,0,1,16.14,4c.61.21.89-.77.27-1a87.46,87.46,0,0,0-16.15-4C158.56,46.4,158.29,47.38,158.93,47.5Z" style="fill: #f08080"></path>
    <path d="M159.82,52.85,167,54.72a.52.52,0,0,0,.64-.36.53.53,0,0,0-.37-.64l-7.16-1.87a.52.52,0,0,0-.63.37A.51.51,0,0,0,159.82,52.85Z" style="fill: #f08080"></path>
    <path d="M175.9,62a.52.52,0,0,0,.64-.36.53.53,0,0,0-.37-.64c-5.14-1.4-10.31-2.73-15.47-4.07a.52.52,0,0,0-.63.37.51.51,0,0,0,.36.63C160.43,58,161.18,58,175.9,62Z" style="fill: #f08080"></path>
    <path d="M160.42,62.83c3.46.91,6.89,1.85,10.29,2.9.61.19.88-.77.26-1-3.4-1.06-6.83-2-10.28-2.9a.52.52,0,0,0-.63.37A.51.51,0,0,0,160.42,62.83Z" style="fill: #f08080"></path>
    <path d="M172.68,71.81c.61.19.88-.78.26-1l-12-3.66c-.62-.19-.88.78-.27,1C160.77,68.15,160.45,68,172.68,71.81Z" style="fill: #f08080"></path>
    <path d="M160.66,73.69,167,75.75c.62.2.88-.77.27-1l-6.32-2.06C160.32,72.49,160.05,73.46,160.66,73.69Z" style="fill: #f08080"></path>
    <path d="M168.92,74.25l.35,2.33a.49.49,0,0,0,.61.35.51.51,0,0,0,.35-.61l-.35-2.3a.51.51,0,0,0-.63-.36.52.52,0,0,0-.37.63Z" style="fill: #f08080"></path>
    <path d="M45.14,135.58c10.46.53,12,5.23,11.73,6.74-.1.65-2.33,8-12.5,6.92A12.7,12.7,0,0,1,35,143.58C32.72,140,36.66,135.15,45.14,135.58Z" style="fill: #f08080"></path>
    <path d="M55.17,142.42a2,2,0,0,0-3-.54,2.72,2.72,0,0,0-2.51-.89c-.4-1.21-2.15-1.74-3.61-.52a2.17,2.17,0,0,0-.32.36,3.51,3.51,0,0,0-2.43-.3c-.88-1.51-3-1-3.72.6a1.69,1.69,0,0,0-.62.14,3.06,3.06,0,0,0-1.79,3.61c.12.63,1.08.36,1-.27,0-.1-.3-2.37,1.4-2.5a.3.3,0,0,1,.31.37c-.2.77-.77,1.6-.17,2.6a1.25,1.25,0,0,0,1.32.61c1.26-.38,1-1.84,1.81-1.59.18.06.51.23.53.44s-.15.39-.21.54a1.34,1.34,0,0,0,0,1.59,1.64,1.64,0,0,0,1.9.15.5.5,0,0,0-.27-1c-.22.09-.59.29-.83.17s-.07-.26,0-.41a1.9,1.9,0,0,0,.29-1.5,1.81,1.81,0,0,0-.74-.76.83.83,0,0,1,1-.27c.58.18,0,.85.56,1.14a1.37,1.37,0,0,0,.91,1.7,1.65,1.65,0,0,0,1.65.08,2.29,2.29,0,0,0,.82-1c.16-.28.44-1,.86-.73a.68.68,0,0,1,.21.83c-.07.17-.36.73-.64.6-.58-.25-1.09.61-.5.87a1.55,1.55,0,0,0,2.06-1.1,1.28,1.28,0,0,0,1,0,.5.5,0,0,0,.37.17C54.77,145.89,55.9,143.87,55.17,142.42Zm-14.07,2c-.11.22-.25.41-.39.38-.46-.09-.29-1-.09-1.4.26-.69.52-1.48-.09-1.93.54-.93,1.53-.95,1.74-.44A3.07,3.07,0,0,0,41.1,144.39Zm4.71-1.12c-.29-1.7-2.62-1.8-3.4-.22l0,.1a1.09,1.09,0,0,0-.36.12,2.21,2.21,0,0,1,3-1.81c.82.28,1.36,1.07.91,1.68Zm5.91.44a1.17,1.17,0,0,1-.22.54,1.58,1.58,0,0,0-.13-1,1.45,1.45,0,0,0-2.51.06,1.34,1.34,0,0,0-.5.23c-1.08,1.05-.9,1.66-1.5,1.67-.3,0-1-.33-.84-.68a4.59,4.59,0,0,1,.67-.82,1.72,1.72,0,0,0-.1-2.14c.09-.61.64-.87,1.28-.91s.82.67.82.67a3.54,3.54,0,0,0-1.08.84.51.51,0,0,0,0,.71.5.5,0,0,0,.7,0C49.61,141.27,52,142.06,51.72,143.71Zm.7.94a2.38,2.38,0,0,0,.28-1.75c1-1,1.74-.3,1.81.52A1.42,1.42,0,0,1,52.42,144.65Z" style="fill: #f08080"></path>
    <path d="M35.36,158.52a5.56,5.56,0,0,0,.49,2.48,7.54,7.54,0,0,0,2.66,2.33c2.67,1.37,5.21,1.37,8.21,1.33a8,8,0,0,0,3.66-.84c2.68-1.41,3.42-4.86,3.92-7.84.74-4.3,1.76-10.81,2.49-15.1-.66,7-12.59,8.12-18.42,5.09a6.9,6.9,0,0,1-3.73-5.59C34.54,140.28,34.53,138.93,35.36,158.52Z" style="fill: #f08080"></path>
    <path d="M56.28,139.16c-1.33-1.67-4.33-3.73-11.11-4.08-4.53-.23-8.22,1-10.11,3.31a4.65,4.65,0,0,0-1,4.15c0,.11.72,12.74.72,12.74,0,1.22.08,2.45.16,3.67a4.7,4.7,0,0,0,.74,2.63,8.83,8.83,0,0,0,4.51,3,18.41,18.41,0,0,0,6.09.63,8.15,8.15,0,0,0,5.37-1.63c2.64-2.3,3-6.35,3.5-9.58C57.28,141.2,58.19,141.56,56.28,139.16ZM53.41,158c-.86,1.05-1.83,3.31-6.19,3.93a62.47,62.47,0,0,0,.36-6.42,12.12,12.12,0,0,0,6.7-2.52C54.27,153,53.57,157.27,53.41,158Zm1.6-9.47a8.69,8.69,0,0,1-1.13,1.14,22.2,22.2,0,0,0,.58-3.71.88.88,0,0,0,0-.16,7,7,0,0,0,1.2-1.07Zm-19.77-4.66a7.3,7.3,0,0,0,2,2.09,24.34,24.34,0,0,0,.19,4.27,4.88,4.88,0,0,1-2-2.21Zm3.18,6.47a24,24,0,0,1-.22-3.79,15.28,15.28,0,0,0,2.14.88l.24,4.17a20.14,20.14,0,0,1-2.22-.86A.5.5,0,0,0,38.42,150.29Zm3.17,1.55-.23-4.18a16.33,16.33,0,0,0,2.49.4,24.75,24.75,0,0,0,.22,4.21A16.08,16.08,0,0,1,41.59,151.84Zm3.48.49a26.72,26.72,0,0,1-.23-4.2,20.39,20.39,0,0,0,2.59,0,35.75,35.75,0,0,0,.07,4.14A16.64,16.64,0,0,1,45.07,152.33Zm3.42-.24c-.15-2.16,0-3.88-.06-4.1a16.33,16.33,0,0,0,2.31-.48l-.45,3.73a.49.49,0,0,0,.13.33A14.08,14.08,0,0,1,48.49,152.09Zm3.28-4.92a13,13,0,0,0,1.61-.74,20.31,20.31,0,0,1-.71,3.7.52.52,0,0,0,0,.35,12.55,12.55,0,0,1-1.4.75C51.8,147,51.78,147.27,51.77,147.17Zm-6.65-11.09c4.12.21,11.64,1.88,11,5.78-2,6.82-17.68,7.23-20.49.45C33.73,137.79,40.22,135.84,45.12,136.08Zm2.91,28a18.88,18.88,0,0,1-6-.09,9.55,9.55,0,0,1-4.92-2.25,3.47,3.47,0,0,1-1.21-2.44c0-.24-.4-9.42-.41-9.52a7,7,0,0,0,3.17,2.12c6.13,2.63,12.51,1.48,16.07-1.72l-.2,1.21a11.06,11.06,0,0,1-7.45,3.07.51.51,0,0,0-.5.5,66.35,66.35,0,0,1-.42,7.46.5.5,0,0,0,.5.5,9.46,9.46,0,0,0,6-2.67c-.13.31-.27.63-.43.93A5.55,5.55,0,0,1,48,164.1Z" style="fill: #f08080"></path>
    <path d="M58.3,154.37c.5.41,1.21-.3.71-.7-8.33-6.75-17.77-14.89-25.8-22.09-.48-.43-1.19.28-.71.71C32.5,132.12,41,140.17,58.3,154.37Z" style="fill: #5e503b"></path>
    <path d="M64.09,150.08c.54.36,1-.53.5-.87-7.1-4.81-12.81-8.26-29.27-18.45-.55-.34-1,.53-.5.87C34.82,131.48,61.62,148.44,64.09,150.08Z" style="fill: #5e503b"></path>
  </g><path d="M103,59.76a.5.5,0,0,0-.41-.2l-7.8.1a.51.51,0,0,0-.5.51.49.49,0,0,0,.5.49,4.31,4.31,0,0,0,4,2.46H99a4.27,4.27,0,0,0,4-2.92A.52.52,0,0,0,103,59.76Zm-4.16,2.36a3.48,3.48,0,0,1-2.92-1.47l5.87-.08A3.18,3.18,0,0,1,98.84,62.12Z" style="fill: #5e503b"></path></g></g></svg>