<svg xmlns="http://www.w3.org/2000/svg" viewBox="0 0 250 250" height="250" width="250"><g transform="matrix(0.625,0,0,0.625,0,0)"><g transform="matrix(2,0,0,2,0,0)"><g fill="#f08080"><path d="M116.19 187.41c2.2-2.13 9.53-10 11.9-11.84a.45.45 0 0 1 .74.49c-1.18 2.13-11.47 11.8-12.07 12.37-.41.51-2.17 2.63-2.65 3.07a2 2 0 0 1-1.18 1.9 35.52 35.52 0 0 0-3.78 1.53c-.18.16-.39 0-.34-.17a11.86 11.86 0 0 0 1.54-2.52 2.47 2.47 0 0 1 2.5-2.11c.07-.13 2.72-2.31 3.34-2.72zm-3.37 2.88a2.26 2.26 0 0 0-2.12 2.05 6.37 6.37 0 0 1-1 1.88c2.53-1.05 3.39-.9 3.94-1.75a2.25 2.25 0 0 0 .32-.93c-.7-.19-1.19-1.37-1.14-1.25zm3.17-2.51c-.78.71-1.59 1.47-2.78 2.5a2.25 2.25 0 0 0 .76.86l2.61-2.79a2 2 0 0 1-.58-.57zM111.54 176c1.14-.75 16.61-10.93 16.76-10.43s-15.18 12.1-15.31 12.18c-.65.74-5 5.43-5.57 5.63a2.83 2.83 0 0 1-1.92-.85A6.21 6.21 0 0 1 104 180c-.19-.68 6.92-3.74 7.54-4zm-7.05 4.45a3.88 3.88 0 0 0 2.75 2.61c-.72-.68-2.24-2.13-2.75-2.61zm3-2.31a22.4 22.4 0 0 0-3.15 1.83c.13.43 0 0 1 .83a10.29 10.29 0 0 1 2.11 2.24c.5-.37 2.53-2.39 2.41-2.28a31.17 31.17 0 0 0-2.4-2.62zm4.09-2c-1.65.77-2.75 1.31-4 1.92a6.6 6.6 0 0 1 2.33 2.57c.6-.6 2.64-2.67 2.94-3-.29-.28-1.05-1.15-1.3-1.47zm24.23-11.43c.51-4.48 1.26-10.05 1.87-10.08s-.05 5.6-.68 10.11c2 .17 4.38 1.27 4 3.17a2.78 2.78 0 0 1-.13 1c1 6.79.11 8.19.18 8.08a6.26 6.26 0 0 1-4.77 2.26 6.45 6.45 0 0 1-4.85-2.16c-.83-1.25-.3-6.53-.14-8a3.94 3.94 0 0 1-.15-.95 2.3 2.3 0 0 1 1.34-2.63 6.75 6.75 0 0 1 3.33-.8zm4.87 8.78c-.79 1.62-3 2.13-4.78 2.13a11.8 11.8 0 0 1-.16 1.43c-.08.38-.17.71-.56.7a2.19 2.19 0 0 1-1.38-.92c-.26-.39-.2-.59.13-1.45a3.08 3.08 0 0 1-2-1.65 13.87 13.87 0 0 0 .27 2.66 2.87 2.87 0 0 0 .88 1c2.26 1.84 5 1.32 7.29-.65.1-.74.24-2.19.31-3.25zm-9.18-4c-.07 1.21-.34 6.32.34 7.32a5 5 0 0 0 1.93 1.38 4 4 0 0 1-1.81-1.78 15.22 15.22 0 0 1-.17-3.24 1.91 1.91 0 0 1 .49-1.71c.71-.82.88-.35.23-.8a3.09 3.09 0 0 1-1.01-1.13zm2.69 5.9a5.51 5.51 0 0 0-.27 1c0 .34.9 1.1 1.3 1.06.14 0 .18-.21.23-.46a11 11 0 0 0 .18-1.37 6.53 6.53 0 0 1-1.44-.19zm6.56-6.14a3.59 3.59 0 0 1-1.51 1.48c1.15.36 1.91 1.13 1.6 2.3 0 .63 0 1.25-.06 1.81-.1 2.09-.17 2-.07 1.85.47-1.78.23-5.52.04-7.4zm-1.68 1.57a6.91 6.91 0 0 1-3 .69 6.81 6.81 0 0 1-.23 1.77 16.49 16.49 0 0 1 0 2 6.58 6.58 0 0 0 3.57-.91c1.59-1 1.84-2.81-.34-3.51zm-4.13 2.5c-.06.14-.56 1.53-.65 1.78a6 6 0 0 0 1.37.17c0-.49.1-1.43.09-1.92a2 2 0 0 1-.81.01zm-1.87-2.32c-1.92 1.32-1.11 3.42 1 4.06.21-.53.54-1.27.78-1.78a13.66 13.66 0 0 1 .2-1.78 6 6 0 0 1-1.98-.5zm2.07.51-.09 1.62c.17 0 .72.08.66 0s.13-.94.2-1.6c-.26.02-.52.01-.77-.01zm5.44-2.65c-1.78 2.23-7.16 2.26-9 0a3.13 3.13 0 0 0 2.37 1.95c2.28.62 5.71.12 6.63-1.94zm-3.73-3.08c-.3 2.07-.56 3.75-.65 4.3 1.51 0 3.53-.55 4.23-1.77-.22-1.56-2-2.37-3.58-2.52zm-1.16 0a4.61 4.61 0 0 0-3.92 2.59c.64 1 2.25 1.55 3.49 1.67.05-.55.21-2.21.43-4.25zm.1-.88a6.51 6.51 0 0 0-3.09.91c-.89.57-1.49 1.45-1 2.4a4.57 4.57 0 0 1 4-2.75zm1.21.1c0 .17-.05.34-.08.51 1.65.15 3.38 1 3.65 2.6.36-.91-.24-1.73-1.08-2.26A6.16 6.16 0 0 0 137 165zm9.58 4.06c-.47-2.33-4.27-19.69-3-20.7a4.49 4.49 0 0 1 1.45-.5c1.4-.3 10.33-1.5 10.74-.29s-2 19.64-2.18 20.63c0 .67-.25 2.54-.25 2.54a3.8 3.8 0 0 1-6.06 1.1 13.16 13.16 0 0 1-.7-2.78zm8.68-19.27a77.67 77.67 0 0 0-11.43 1c.31 4.2 2.13 14 2.92 18.18a6 6 0 0 0 6.64-.59c.11-.85 1.79-17.47 1.87-18.59zm-.9 5.8s.06-.68-.78-.51-2.37 1.61-4.25 1.45-3.67-1.21-4.23-.51 1.81 2.91 4.88 2.39c3.52-.59 4.45-2.04 4.38-2.82zm-9.9-7.1c-.15 0-.56.16-.6.29a7.16 7.16 0 0 0 0 1.91l1-.19a7.38 7.38 0 0 1-.4-2.01zm1.73-.37c-.51.09-1.11.2-1.6.33a17.51 17.51 0 0 1 .33 2c.38-.07 1.44-.25 1.75-.28-.03-.07-.27-.9-.48-2.05zm1.91-.25c-.63.07-1.23.15-1.78.23a7.49 7.49 0 0 1 .44 2.08l1.68-.21c-.06-.33-.27-1.37-.34-2.1zm1.87-.18c-.34 0-1.06.08-1.74.16a7 7 0 0 1 .31 2.11l1.8-.17c-.03-.17-.24-1.07-.34-2.1zm2-.13-1.87.12a7.27 7.27 0 0 1 .34 2.1c.58 0 1.22-.08 1.79-.1 0-.02-.23-1.99-.23-2.12zm2.42 0a18.07 18.07 0 0 1-.23 2.09h1.11c0-.25.17-1.93 0-2a4.25 4.25 0 0 0-.88-.08zm-.13 0h-2.15a6.29 6.29 0 0 1 .22 2.12h1.74a8.11 8.11 0 0 1 .19-2.12zM79 161.33c1.31 0 2.38.48 2.38 1.09s-1.07 1.09-2.38 1.09-2.37-.49-2.37-1.09 1.02-1.09 2.37-1.09zm-25.28-5.76c0 .22-.41.42-.93.44s-1-.15-1-.38c.02-.53 1.91-.63 1.93-.06z" fill-rule="evenodd"></path><ellipse cx="63.19" cy="180.12" rx="1.16" ry=".69"></ellipse><path d="M113.13 147c1 0 1.86.29 1.86.64s-.83.65-1.86.65-1.85-.29-1.85-.65.83-.64 1.85-.64zm-63.67-25.53c0 .25-.15 2.14-.07 4.9 0 .37.07 1.63.07 1.63s.12.07.12 0 .06-1.26.07-1.63c.06-2.3-.07-5-.07-4.9a.06.06 0 0 0-.12 0zM91.11 12.2c1.25.34 3.46 1.05 4.26 2.08a.22.22 0 0 1-.25.34c-4-1.63-10.37.45-14.41 2.13-1.6.67 8-10.16 14.9-8.46a.23.23 0 0 1 0 .44A34.3 34.3 0 0 0 91 10.16c1.15.05 3.8.22 4.69 1a.24.24 0 0 1-.13.42 43.42 43.42 0 0 0-4.45.62zm3.32-3.63a11.18 11.18 0 0 0-5.6 1.48 27.28 27.28 0 0 0-8 6.43c3.83-1.66 9.28-3.54 13.37-2.6a16.32 16.32 0 0 0-4.08-1.44.23.23 0 0 1 0-.45 28 28 0 0 1 4.65-.84 20.23 20.23 0 0 0-4.68-.54.23.23 0 0 1-.12-.43 21.17 21.17 0 0 1 4.46-1.61zM26.9 92.22a21.36 21.36 0 0 1-3 .18.22.22 0 0 1-.1-.42c1.24-.67 4.16-1.33 5.66-2.37l3.71-2.48a.08.08 0 0 1 .12 0c.11.13-.12.14-1.37 1.79a13.34 13.34 0 0 0-2 3.38 40.51 40.51 0 0 0-1.41 3.9c0 .3-.72.52-.52-1.12a18.43 18.43 0 0 1 .34-1.82 25.12 25.12 0 0 1-3.27 2 .23.23 0 0 1-.33-.28 8.05 8.05 0 0 1 2.17-2.76zm5.66-4.43c-4.9 3.45-2.71 2.2-7.6 4.15a9.42 9.42 0 0 0 2.76-.42l.11-.09c.22-.17.61.17.18.45a12.86 12.86 0 0 0-2.52 2.64 15.89 15.89 0 0 0 3.09-2.07.23.23 0 0 1 .39.23 22.23 22.23 0 0 0-.5 2.29 18.07 18.07 0 0 1 4.09-7.18zm.68-4.67a17.51 17.51 0 0 1 7-6.43c3.88-1.83 5.3.12 3.54 3.62a20 20 0 0 1-6.25 7 9.48 9.48 0 0 1 .35 3.16c-.26 1-5.15 2.68-5.82 2.6a.28.28 0 0 1-.24-.16c-.1-.23.13-.44.35-.61A33.64 33.64 0 0 1 36 89.88l-.07-1.66-.57.28a.21.21 0 0 1-.21-.06L32 85.37a.09.09 0 0 1 0-.12s.1-.21.31-.58h-1.75c-.26.54-2 4.06-2.56 4.3a.28.28 0 0 1-.4-.22c-.12-.75 1.36-5.64 2.34-5.93a10.27 10.27 0 0 1 3.25.22.08.08 0 0 1 .05.08zm4.07 4.26a13.64 13.64 0 0 1-1.23.73l.21 1.89c0 .15 0 .06-2 1.38-.61.39-1.23.8-1.65 1.11A20.19 20.19 0 0 0 37 90.72c.11-.07.4-.27.44-.4a9.75 9.75 0 0 0-.13-2.94zm-4.41-3.27c-.39.58-.63 1-.72 1.17l3.1 2.87c.36-.18.75-.4 1.16-.65a24.22 24.22 0 0 1-3.54-3.39zm.25-.85a11.07 11.07 0 0 0-3.11 0c-.35.12-.95 1.71-1.06 2a20.71 20.71 0 0 0-.85 2.89c.6-.89 2.24-3.8 2.17-3.66a.16.16 0 0 1 .15-.09l1.95.1c.2-.38.44-.77.75-1.24zm5.51-5.19A20 20 0 0 0 33 83.91a23.22 23.22 0 0 1 3.62 3.46 20.51 20.51 0 0 0 5.76-5.72zm-1.79 2.51a2.12 2.12 0 1 0 3.07 2.93 2.1 2.1 0 0 0-3.07-2.93zm2.79.16a1.77 1.77 0 0 1 0 2.47 1.69 1.69 0 0 1-2.44-2.33 1.76 1.76 0 0 1 2.44-.14zm-.55.57a1 1 0 1 1-1.44 0 1 1 0 0 1 1.44 0z" fill-rule="evenodd"></path><path d="M70.77 13.39a.76.76 0 1 1 1.23-.76.8.8 0 0 1-1 .82c0 .1-.15 1.21-.45 2.51a5.8 5.8 0 0 1 3.78 1.42.13.13 0 0 1 .07-.06c7.8-1.1 8.61 1.48 6.1 3.55-2.82 2.33-11.48 5-16.26 4.37-1.25-.15-3.19-.73-3.21-1.91 0-1.52 4.07-3.21 4.23-3.29a6.94 6.94 0 0 1 3.52-3.74c-.71-.77-1.45-1.89-1.62-2.08-.85.46-1.65-.63-1-1.19a.73.73 0 0 1 .52-.18.72.72 0 0 1 .59 1.27 4.31 4.31 0 0 1 .89.86c1.44 1.74.22 1.14 2 1a7.77 7.77 0 0 1 .61-2.59zm-5.68 6.93c-.9.44-3.8 2-3.76 3 0 .33.29.66.82.95 3.72 2 14.79-1.14 18-3.75 1.83-1.47 1.64-2.88-1.84-3.13a26.61 26.61 0 0 0-4 .12c-.25.58-2.66 5.14-9.22 2.81zm-1 2.38a.73.73 0 0 0 .42 1 .75.75 0 0 0 .91-.55.7.7 0 0 0-1.33-.45zm.82-.28c.44.2.14 1-.28.88s-.2-.97.28-.88zm6.9-.57a.59.59 0 0 0-.89.23.79.79 0 0 0 .34 1 .64.64 0 0 0 .94-.33.74.74 0 0 0-.39-.9zm-.08.14c.4.3.14 1-.28.76s-.2-.96.28-.75zm5.35-2.86a.53.53 0 0 0-.82.12.73.73 0 0 0 .26.93.58.58 0 0 0 .88-.18.65.65 0 0 0-.32-.87zm-.08.13c.3.28.09.84-.26.6s-.15-.8.26-.6zM66.68 13a.52.52 0 0 1 .5.49.45.45 0 0 1-.45.43.46.46 0 1 1-.05-.92zm4.43-.85a.52.52 0 0 1 .5.49.45.45 0 0 1-.45.43.46.46 0 1 1-.05-.91zm49.35 49.65a4.07 4.07 0 0 1 7.54 2.88 28 28 0 0 1 4.2 2.52c.58.52.5 1-.53.93a27.41 27.41 0 0 1-5.28-1 4.07 4.07 0 0 1-6.39-2.48c-1-.48-4.47-2.27-4.68-3.28-.07-.37.29-.54.67-.58a13.57 13.57 0 0 1 4.47 1.01zm7.46 3.09a4.07 4.07 0 0 1-1.07 1.79 29.25 29.25 0 0 0 5.2 1c-.57-.74-3.31-2.32-4.13-2.79zm4.19 2.8zm-11.75-2.89A3.81 3.81 0 0 0 126 67a40.78 40.78 0 0 1-5.64-2.2zm6.18 1.79a3.83 3.83 0 0 0 .58-5.07 3.73 3.73 0 0 0-5.35-.87 3.84 3.84 0 0 0-1.54 3.52 41.89 41.89 0 0 0 6.31 2.42zM120.36 62c-.74-.24-4-1.18-4.59-.72.23.72 3.48 2.41 4.23 2.72a3.94 3.94 0 0 1 .36-2zm-72.5 61.63a26.17 26.17 0 0 0 3.8 2.07.06.06 0 0 0 .06-.1 26.78 26.78 0 0 0-3.8-2.07.06.06 0 0 0-.06.1zm-21.68-87.8c0-2.42.14-4.7.14-4.6a.1.1 0 0 1 .19 0c0 .73.13 1.38.14 4.76a24.46 24.46 0 0 1 2.29-1.32.09.09 0 1 1 .1.16 23.36 23.36 0 0 1-2 1.47c1.44.79 1.73 1 2.42 1.42s.7.42.65.52-.1.06-.79-.26-1.16-.52-2.67-1.35c0 3.83-.15 5.58-.15 5.48a.1.1 0 0 1-.19 0c0-.72-.14-1.35-.14-5.25a25.78 25.78 0 0 1-2.42 1.42.09.09 0 1 1-.1-.16 25.84 25.84 0 0 1 2.47-1.79c-.81-.45-1.07-.61-1.71-1s-.85-.51-.8-.62a.11.11 0 0 1 .13 0c1.26.47 2.01.9 2.44 1.12z" fill-rule="evenodd"></path><path d="M47.92 125.7a19.83 19.83 0 0 0 3.17-2.07c.07 0 0-.14-.06-.1a20.09 20.09 0 0 0-3.17 2.07c-.06.04 0 .14.06.1zm31-60.3c0 2.81.1 3.26.1 3.77a.07.07 0 1 0 .13 0c0 .1.11-1.52.11-3.94a25.32 25.32 0 0 0 2.39 1.19c.08 0 .15-.08.07-.12a24.72 24.72 0 0 0-2.18-1.3 15.28 15.28 0 0 0 1.43-1 .07.07 0 0 0-.07-.12s-.82.42-1.64.95c0-2.49-.1-3-.1-3.42a.07.07 0 0 0-.14 0c0-.1-.09 1.61-.1 3.31-.29-.15-.87-.46-1.75-.84-.08 0-.15.08-.07.12s.74.51 1.78 1.08a19.15 19.15 0 0 0-1.78 1.22c-.08 0 0 .17.07.12-.1.05.65-.32 1.75-1.02zm25.14 70.66c-1.09-.45-12.59-1.16-12.69-1.17-.31 0-2.55.45-2.7.49s0 0 0 .05a19.5 19.5 0 0 0 2.7 1c1 .21 3 .23 12.48 1.25.18 0 .56-.62.34-1.52-.01-.03-.08-.07-.13-.1zm-12.74.27-1.51-.53a.6.6 0 0 0 .08-.56 12.85 12.85 0 0 1 1.48-.21c.24.24-.4.33.08.64.06 0 .07 0 0 .07a.21.21 0 0 0-.09.29c.08.14.17.2-.04.3zm.12 0c.28-.15-.1-.38.09-.5.42-.29-1.58-.21 11.63 1a.88.88 0 0 0 .13.59zm11.73.42c-.45-.05-11.52-1.1-11.59-1.16s-.25-.11-.16-.23.14-.23 0-.35c.1 0 9.91.78 12 1.13a1.13 1.13 0 0 0-.25.63zm.64.69c-.07-.07-.08-.05-.15-.25s0-.88.32-.88a1.51 1.51 0 0 1-.17 1.15zm-24.97-6.15zm31.92-23.36a.26.26 0 1 0-.45.24c.1.16.2.32.31.48a.26.26 0 1 0 .43-.28c-.05-.14-.2-.29-.29-.44zM98.3 86.69c.06-.47.61-2.86.4-2.91a.09.09 0 0 0-.12.06 12.06 12.06 0 0 0-.65 2.16 5.2 5.2 0 0 0-.11.79.24.24 0 0 0 .12.2 2.49 2.49 0 0 0 .8.25c.22 0 1 .06.91-.15s-.21.17-1.35-.4zm4.49-1.45v-.52c0-.36-.5-.41-.51 0v.57a.26.26 0 1 0 .51-.05zm.66 2.76c-.32 1.2-.75 1.38-1.27 1.44a2 2 0 0 1-.32 0 .09.09 0 0 0-.06.18c.87.5 2.06-.11 1.84-1.62a.1.1 0 0 0-.19 0zm3.76 12.5a.25.25 0 1 0-.5.09 5 5 0 0 0 .16.55.26.26 0 1 0 .49-.14c-.06-.17-.11-.34-.15-.5zm-9.84-16.75a.26.26 0 1 0-.51 0v.57a.26.26 0 1 0 .51 0 4.52 4.52 0 0 1 0-.57zm30.85 68.87zm-3.56-65.69zm51.76 38.71s-.06.01 0 0z" fill-rule="evenodd"></path><path d="M181.41 125c-1.11-.54-3.75-.09-5 .17a4.16 4.16 0 0 0-3.71-1.34c-1.12.28-1.39 1.66-1.34 2.82-.72-.13-1.5-.22-2.22-.29.06-.22.25-.53.19-.75a.59.59 0 0 0-.85-.28 4.09 4.09 0 0 0-.55.53c0-.35.29-.91-.06-1s-1.44.89-1.75 1.24a31.59 31.59 0 0 0-6.91 0 12.78 12.78 0 0 0-8 3.59c12.16-14 17.5-23.62 17.36-35.61s-14.39-17.71-20.25-17.86c-5.69-.14-11.56 3-11.86 3-5.14 1-18.62-.49-21.45.69a9.21 9.21 0 0 0-2.76-6.83c-1.62-1.77-4.21-2.43-6.84-2.32-3.75.17-7.47 1.74-9.33 5a7.89 7.89 0 0 0-1.06 3.46c0 .31-.64 5.41 1 9.27a6.75 6.75 0 0 0 4.42 4.09A65.23 65.23 0 0 0 96 99.29c-.31.65-.08 1 .37 1s1.05-.12 1.47-.1c-.66 1.81-2.34 6.53-2.75 8.4a26.49 26.49 0 0 0-5.5 4.95c-3 3.44-4.4 7.17-7.8 9.16l-1 .56c1.36-4.13 3.93-12.33 3-12.34s-3.19 7.88-4.63 13.23c-1.54.85-2.32 1.39-2.86 3.07a3.5 3.5 0 0 0 0 2.68.88.88 0 0 0 .7.5c.12 0 .12-.11-.21.62a1.48 1.48 0 0 0-.44.21l-4.81-2.93c-.11 0 1.27-.19-28 3.62-.55-.41-1.13-.84-1.73-1.31-14.38-11.19 32.58-23.2 36.34-38.49 3.37-13.69-16-16.45-11.7-29.31s32.42-9.26 58.89-10.8 37-28.26 17.73-42.18-39.07 5.85-43.75 10.9-10.08 11.66-25.24 11-35 1.91-42.27 23.89c-3.5 10.52-.36 17.9 4.31 23.75a13.49 13.49 0 0 1 5.63-3.43c1.24-.3 2.47-.14 2.82 1.09.66 2.26-2.08 5.77-3.67 7.52 4 3.86 7.84 7.12 9.35 10.49 2.52 5.66-9.56 9.85-14.66 13.16s-12.89 13.55-8.11 23.49a23 23 0 0 0 1.2 2.22c-10.14 1.31-10.49 1.31-10.59 1.37s-.07.24 0 .34h-.07c.9 1 27.39 38.86 43.65 58.1l.29.06c3.52-1.69 67.4-32.7 64-34.61 0 0-46.7-26.07-47.81-26.73a6.73 6.73 0 0 0 .45-.93.24.24 0 0 0 .22-.21v-.54c.62.21 1.59-.39 2.09-.84 1-.92 2.5-3.48 3.61-3.82a64.93 64.93 0 0 0 6.54-2c8.91-3.34 12.61-7.08 16.49-13.12a17.25 17.25 0 0 0 1.63-3 23.77 23.77 0 0 0 8.08 5.7c-8.08 9.33-6.81 15.25-3.89 18.48 2.67 2.95 7 1.91 7.71 1.69 0 4.44 1.5 14.3 2 15.29.26.57-.61 1-.79 2.13a3 3 0 0 0 1.32 3c1.11.7 3 .74 2.26-.37a6 6 0 0 0-.83-.87c.29.09.61.21 1 .35 3.65 1.43 4.13 2.08 4.8 1.89a.63.63 0 0 0 .42-.33.69.69 0 0 0 1-.24.45.45 0 0 0 0-.42 1 1 0 0 0 .12-.71c0-.9-3.44-3.84-4.14-4.42.1-1 .63-3.22 1.95-9.12 6.82 7.69 29.75-3 31-3.54.21.22 8.68-3.39 9.66-3.91-.1 0 10.74-4.9 11.15-6.7 0-.42-.27-.69-.59-.88zm-38.68-90.54a.63.63 0 0 1 .61.64.62.62 0 0 1-.61.64.63.63 0 0 1-.62-.64.63.63 0 0 1 .62-.64zM137.08 17a.61.61 0 0 1 .61.62.61.61 0 1 1-1.21 0 .61.61 0 0 1 .6-.62zm-18.8 27.59a.31.31 0 0 1 0-.61.31.31 0 0 1 0 .63zm-2.72-27.47c0-.4 1-.6 1.44-.66a8.36 8.36 0 0 1 2.19 0 11.06 11.06 0 0 1 1.65-2.28c.21-.17.4-.23.59 0a8.85 8.85 0 0 1 .86 2.91c1.55.4 3.71 1.14 2.41 2.07-.4.29-1.11.59-1.88 1a16.57 16.57 0 0 1 .08 2.43c0 .37-.1.93-.47 1-.75.13-1.33-.91-2.51-1.93-1.13.56-3.39 1.8-3.44.61a8.65 8.65 0 0 1 .89-2.91c-1.15-1.09-1.88-1.62-1.81-2.22zm-1 18.39a4.06 4.06 0 0 1-5.95 3.58l5.82-4.62a4.42 4.42 0 0 1 .14 1.06zm-.25-1.41c-1.6 1.23-3.75 3-5.9 4.87a3.54 3.54 0 0 1-.46-.33c2.09-2.11 4.14-4.49 5.41-6a4.33 4.33 0 0 1 .96 1.48zm-1.17-1.67c-.4.43-3.88 4.35-5.38 6a4.17 4.17 0 0 1-1-1.4c1.52-1.1 3.59-2.63 5.89-4.44l.36-.29zm-2.63-1a4 4 0 0 1 2.25.69l-1.41 1c-.32.24-2.75 2.15-4.67 3.65a4.07 4.07 0 0 1 3.83-5.36zm-9.64-1.64a.61.61 0 1 1-.59.61.6.6 0 0 1 .6-.56zm-5.51 15.14a1.19 1.19 0 1 1-1.23 1.19 1.22 1.22 0 0 1 1.23-1.19zM79.8 42.11c.43 0 .43.77 0 .77s-.44-.77 0-.77zM39.13 64.22a.33.33 0 1 1 0-.65.33.33 0 1 1 0 .65zm21.5 39.26a.7.7 0 1 1 .78-.69.74.74 0 0 1-.78.69zM63 36.6a.69.69 0 1 1-.68.69.69.69 0 0 1 .68-.69zm.58 35.91A.51.51 0 1 1 63 72a.51.51 0 0 1 .55.51zm.23 14.77c.6-.47 2.37-1.93 2.9-1.47s.07 1.43 0 2.81c1.11.53 3.41 1.54 2.51 2.18a9 9 0 0 1-2.8.84c-.17 1.45-.16 2.19-.65 2.44-.34.16-1.09-.45-1.37-.71a7.59 7.59 0 0 1-1.4-1.58 11.48 11.48 0 0 1-2.75 0c-.24-.06-.42-.17-.37-.41.11-.55 1.35-1.72 1.76-2.11-.26-.57-.87-2-.66-2.57.3-.79 1.59.08 2.8.58zm-3.25-32.22c.21 0 .32.15.29.41a7.91 7.91 0 0 1-.94 2.1 6.94 6.94 0 0 1 1.09 1.5c1 1.93-.39 1.44-2.45 1a6.93 6.93 0 0 1-1.82 1.84c-.93.46-1.14-1.5-1.3-2.61-1.41-.37-2.53-.32-2.82-.89s1.87-1.44 2.49-1.72c-.07-1-.5-2.34.36-2.3a6 6 0 0 1 2.34 1.34 9 9 0 0 1 2.76-.67zM47.82 83a.78.78 0 1 1 0-1.54.78.78 0 1 1 0 1.54zm-5.64-30.21a.17.17 0 0 1 0-.33c2.19-.15 4.68-.22 6.87-.22A32 32 0 0 0 43.22 49a.18.18 0 0 1 .08-.35 14.6 14.6 0 0 1 6.53 1.62 48 48 0 0 0-4.21-3.73.17.17 0 0 1 .17-.29 23.65 23.65 0 0 1 7 3.64 22.7 22.7 0 0 1 5.35 5.54c0 .09-.09.16-.15.07a22.6 22.6 0 0 0-5.34-5.5 23.62 23.62 0 0 0-6.06-3.21c.73.59 3.69 3 4.08 3.89.08.16-.12.31-.29.21A15.52 15.52 0 0 0 47 49.5a12.46 12.46 0 0 0-2.82-.5c1.15.55 4.72 2.3 5.45 3.34a.18.18 0 0 1-.16.28c-.11 0-2.87 0-5.8.1 3.46.66 8 1.93 10.89 4 .08.06 0 .18-.1.12-3.14-2.19-8.57-3.55-12.28-4.05zM98.8 73.44c3.41-2.57 10.17-3.25 13.13 0a8.76 8.76 0 0 1 2.64 6.56 10.16 10.16 0 0 1-2.7 5.89c-.18.18-.18 0-.12-.09a2 2 0 0 0-.9-3c-1.89-.86-2.46 2.31-3.84 2.7-1.2.35-.75-2.45-.66-4.32a3.3 3.3 0 0 0-.53-2.35 7.82 7.82 0 0 0-3-2A12.77 12.77 0 0 0 96.5 76a8.54 8.54 0 0 1 2.3-2.56zm-2.37 14.91c-1.65-3.9-.93-9.08-.93-9.08a7.44 7.44 0 0 1 .89-3 12.56 12.56 0 0 1 6.33 1 7.59 7.59 0 0 1 2.85 1.89c1 1.32 0 3.84.32 5.81.12.77.48 1.26 1.23 1 1.55-.44 2.07-3.38 3.56-2.7s1.22 2.63-.54 3.37c-.68.29-.62.94-.1 1 .27 0 .8-.15 1.61-.8a12 12 0 0 0 2.74-4.09 16 16 0 0 1 4 1.42c1.78.81 3.88 1.94 5.54 2.91a13.71 13.71 0 0 0-10.24 10.53c-.38 0-.35-.54-.61-.74s-.42 0-.73.1a1.49 1.49 0 0 0-.16-.71c0-.58-.95-.24-1.5-.06a2.11 2.11 0 0 0-.11-.73c.23-.74-1.11-.37-1.86-.16a2.2 2.2 0 0 0 0-.86c.07-.58-1.2-.21-1.73 0a2.58 2.58 0 0 0-.06-1c-.28-.39-1.76.43-1.82.06a2.29 2.29 0 0 1 .16-.8c.17-.61-.66-.23-.9-.27a.06.06 0 0 1-.06 0v-.12a10.09 10.09 0 0 0 2.39-1 2.81 2.81 0 0 0 1.61 1.14 3.23 3.23 0 0 0 3.85-4.46c0-.11-.22 0-.17.07a3 3 0 0 1-2 3.84l-2.42-1.49c-.09-.06-.08 0-.61.34a3.11 3.11 0 0 1 .93-3.91 3.92 3.92 0 0 1 2.37-.66.1.1 0 0 0 0-.19 4.09 4.09 0 0 0-2.59.55 3.42 3.42 0 0 0-1.13 4.45 10.24 10.24 0 0 1-5.84 1.31 6.38 6.38 0 0 1-4.27-3.96zM112 97.23a3.39 3.39 0 0 0 .76-.26c.44-.16.32.72.88.73-.1.47-.16.84-.19 1.07-.47-.17-.91-.36-1.35-.54a3.21 3.21 0 0 0-.1-1zm0-.22s0-.05.1-.39a.91.91 0 0 0 .15.35L112 97zm-.1.19a3.28 3.28 0 0 0 0 1c-.7-.29-1.35-.59-2-.89a1.45 1.45 0 0 0-.11-.55c.46 0 2-.74 2.07-.52s-.29.76.04.96zm-2.21-.51a1.43 1.43 0 0 0 .07.46c-.26-.12-1.33-.66-1.6-.8a2.37 2.37 0 0 0-.1-.63 11.38 11.38 0 0 0 1.77-.39c.07 0 .52-.06.48 0-.04.29-1.06 1.13-.62 1.36zm-1.75-.46c-.51-.27-1-.53-1.38-.77a1.53 1.53 0 0 0-.11-.62.72.72 0 0 0 .47-.08 3.94 3.94 0 0 1 1.46-.35 4 4 0 0 0-.54.8 2.43 2.43 0 0 0 .1 1.02zm-1.61-.9-1.11-.67a2.5 2.5 0 0 0-.09-.88c.32.07 1.15-.26 1.53-.23a6.63 6.63 0 0 0-.49.77 3.27 3.27 0 0 0 .16 1.01zm.43-1.45a2.42 2.42 0 0 0 0 .6c-.07 0-.3.11-.32 0s.2-.48.32-.6zm1.76.86a1.94 1.94 0 0 0 .07.58 1.46 1.46 0 0 1-.48.09s-.04-.14.41-.67zm1.92 1a1.69 1.69 0 0 0 .11.48 5.16 5.16 0 0 1-.61.19c.12-.18.28-.41.5-.68zm-5.51-2.08a3.23 3.23 0 0 0 .11.89 8.61 8.61 0 0 1-.5-.33l-.23-1.68c.25 0 .77-.15.77 0s-.42.81-.15 1.11zm2.14-2.7c.14-.09.29-.2.43-.31l2.2 1.35a2.64 2.64 0 0 1-2.63-1zm-10.71 8.88c-.24-.07 1.14-2.21 1.3-2.46.49-.79 2.86-4.45 3.06-4.75a10.39 10.39 0 0 0 2.47-.15c.16 5.92 1.23 8.38 2.53 10.69-.67-.21-1.35.1-1.94-.11-.83-.28-.8-1.48-2-1.55a5.41 5.41 0 0 0-2.21.77c-.27.11-.33 0-.4-.12a14.39 14.39 0 0 0-.44-2c-.46-.79-1.9-.16-2.37-.32zm-24.93 28.72 4.72 2.85a6.28 6.28 0 0 1-.89.7c-.77.41-1.57.1-1.58.71-4.31 1.65-10.8 9.26-2.71 16.21 10.34 8.87 22.11 12.41 11.16 20.87-3 2.35-6.09 2-9.66-.31-3.92-2.57-3.88-13.89-7.64-20.88-6.25-11.63-8.83-7.71-20.91-16.45zm13.89 42a.1.1 0 1 1 0-.2.1.1 0 0 1 0 .19zm-5.12 3a.29.29 0 1 1 0-.57.29.29 0 1 1 0 .61zm-12.88-.7a2.77 2.77 0 0 1 .45-.82c-.45-.62-.72-.93.06-.89a2.59 2.59 0 0 1 .67.14c.8-.88.94-.82.91.38.2.1.67.34.76.54s-.42.32-.78.43c0 .24-.09 1-.32 1s-.36-.37-.66-.75c-.41.11-1.14.37-1.09.01zm-.13-12.74a.29.29 0 1 1 0-.57.29.29 0 1 1 0 .61zm-12.08-14.5a.29.29 0 1 1 0-.57.29.29 0 1 1 0 .57zm-4-6.24a.29.29 0 1 1 0-.57.29.29 0 1 1 .03.57zm-11.73-2a.29.29 0 1 1 0 .57.29.29 0 1 1 .03-.57zm-6.59-20a4.34 4.34 0 0 1 1.39-.75c0-1.3-.1-2 .93-1.23a4.63 4.63 0 0 1 .8.84 5.41 5.41 0 0 1 1.43-.23c.14 0 .23.08.22.22a4.82 4.82 0 0 1-.76 1.43 3.38 3.38 0 0 1 .52 1.49c-.09.49-.86.06-1.48-.12-.27.32-1.1 1.38-1.41 1.14s-.14-.86-.18-1.7c-.61-.22-1.85-.62-1.43-1.09zm-3.68 8.82a.29.29 0 1 1 0 .57.29.29 0 1 1 .03-.57zm96.45 33.21c-3.66 4.77-58.31 31.29-63.63 33.86C49.44 178.44 30 151.4 18.6 135.62l10.3-1.35c6.42 10.13 16.26 7.78 21.54 11 5.94 3.63 9 6.37 10.8 13.41 2.45 9.57-.64 13.7 6.52 16.75 6.86 2.91 20.48 1.74 26-7.73s-5.29-13.61-15-18-8-10.47-6.68-12.19a19.6 19.6 0 0 1 3.48-3.5 2.82 2.82 0 0 0 2.44-1.39c1.17.63 45.55 25.64 47.59 26.79zm-37 11.79a.1.1 0 1 1 0 .2.1.1 0 1 1 .01-.2zm2.56-10.13c-.12.08-.3 0-.58-.14-.44.49-.65.63-.6-.2-.43-.14-.67-.21-.27-.44a1.67 1.67 0 0 1 .38-.15c.11-.69.2-.7.58-.12a1.17 1.17 0 0 1 .56 0c.14.08-.09.27-.25.46.06.14.3.52.19.59zm-14.76-27.66a2.16 2.16 0 0 1-2.23-.55h.09c1.89-.29 1.61-1.07 2.59-1.55.09.1 0 .07 1.59.19a3.67 3.67 0 0 1-2.04 1.91zm2.31-4a1.45 1.45 0 0 0-.16.88c0 .07-.07.39-.11.69l-1.08-.09c0-.05.71-1.74.76-1.9h.68zm-.2-2.81c-.69 1.29-1 3.69-1.61 3.27a1.21 1.21 0 0 1-.34-.82 4.41 4.41 0 0 1 .24-1.7 4.06 4.06 0 0 1 2.26-2.6c-.53 2.04-.38 1.58-.55 1.89zm.72 1.51c.16-.47.38-1.16.69-2.06.13-.07.16 0 .33.42.27.7-1.31 2.48-1.31 2.48.1-.29.21-.57.29-.8zm28.24-17.33c-3.53 5.31-6.15 7.69-10.27 10a53.9 53.9 0 0 1-12.71 4.82c-1.78.55-3.27 4.5-5.22 4.68-.22 0-.37 0-.19-.5.45-1.25 2.08-2.29 1.61-3.48a2.4 2.4 0 0 0-.24-.51.67.67 0 0 0-.35-.28c.06-.2.26-.78.53-1.6.23-.16.39-.21 1.44-.83 3.52-2.08 4.9-5.81 7.86-9.3a26.35 26.35 0 0 1 5.42-5c.15-.09-.1.06 1.06-3.6.67-2.11 1.45-4.34 1.68-5a.29.29 0 0 1 .21.14c.26.49.21 1.43.43 2 .52 1.26 1.81-.43 3-.4 1 0 1 1.15 2 1.44.75.22 1.5-.24 2.2.09a25.66 25.66 0 0 0 3.22 4.35 16.75 16.75 0 0 1-1.68 3.02zm6.14.32a26.12 26.12 0 0 1-7.42-8.17c-1.23-2.14-2.37-4.53-2.76-10.53a6.93 6.93 0 0 0 .7-.16l.21 2a27.23 27.23 0 0 0 3.48 2.24s-.85 4.81 3 11c1.85 3.04 2.79 3.66 2.79 3.66zm18.59 12.9c.18 2.18-1.8 14.08-2.07 15.7a.12.12 0 0 0-.07.07c.13-.49-2.12 7.08-2.29 9.45 0 .19 0 .1 1.71 1.58.58.51 2.57 2.2 2.67 2.79a.82.82 0 0 1 0 .47 10.22 10.22 0 0 0-3.14-2.26.09.09 0 1 0-.1.16l.81.66a12.88 12.88 0 0 1 2.22 1.91c-.1.25-.32.27-.58.2 0-.52-2.28-1.78-3-2.21-.11-.06-.21.1-.1.16a15.47 15.47 0 0 1 2.79 2.06c-.32.72-1.29-.31-4.82-1.76a7.45 7.45 0 0 0-2-.58.22.22 0 0 0-.22.14c-.09.26.19.25 1.09 1.16a2.55 2.55 0 0 1 .49.58 2.58 2.58 0 0 1-1.71-.4 2.54 2.54 0 0 1-1.1-2.49c.17-1 1.16-1.51.75-2.4s-1.25-6.67-1.37-7.5c-1.11-7.51-.69-7.67-.9-7.73 0-10.42.33-10.46.25-11 0-.11-2.24-15.49-2.26-15.61.66 0 1.13.73 1.5 1.33.54.86 1 1.42 2.08 1.09s2-1.24 3-1.6 1.53 0 2.62.35a2.12 2.12 0 0 0 2.52-.53c1.74-1.45.92-1.81 4.48-.41-.69 2.69-2.24 10.29-2.27 10.41a21.32 21.32 0 0 0-.98 6.21zm-13.07-17.34a19.13 19.13 0 0 0-2.29 1c-.17 0-.24 0-.29-.2-.31-1.43 3.33-18.36 12.4-19 4.14-.28 7 7.15 8.25 11.11a54.69 54.69 0 0 1 1.91 7.7c.18 1.81-5.1-1.58-6.62-1.23-.6.14-.87.65-1.73 1.37s-1.3.72-2.06.45a4 4 0 0 0-2.94-.36c-1.06.38-1.94 1.27-3 1.6-.9.29-1.18-.33-1.69-1.13s-1.03-1.48-1.94-1.35zm14.9 9.44c.42-1.66 1.16-5.1 1.71-8.7.92.36 2.93 1.24 3.6.6a.9.9 0 0 0 .22-.81 48.76 48.76 0 0 0-1.5-6.24c-1.34-4.45-4.47-13-9.13-12.71-9.46.66-13.15 17.73-12.83 19.27a.65.65 0 0 0 .87.55c.57-.14 1.38-.76 2.12-.93.11 1.82.32 4.24.76 7.37a32.72 32.72 0 0 1-4.87-2.4 23.19 23.19 0 0 1-6.38-11.17 20.05 20.05 0 0 1-.6-4.25 44.51 44.51 0 0 0 5.64 2.65.22.22 0 0 0 .3-.19 14.36 14.36 0 0 1 3.44-7.62 13.36 13.36 0 0 1 7.25-4.14.22.22 0 0 0 .07-.41 61.46 61.46 0 0 0-6.12-3.09 19.2 19.2 0 0 0-4.06-1.36 10 10 0 0 0 .54-2.31c2-.85 12.09.4 18.89-.31a15.86 15.86 0 0 0 3.05-.49c6.13-.17 15.36 7.37 17.06 10.77s1.43 7.65-2.34 12.94c-3.55 4.95-16.31 12.17-17.68 12.94zm27.21 20.19c1.39-4.38-.81-8.48-1.6-9.75l6.62-.18a4.27 4.27 0 0 1 1.84 2.22 12.49 12.49 0 0 1 .85 4.37c-1.98.89-5.65 2.57-7.71 3.3zm8.14-3.61a11.29 11.29 0 0 0-1-4.24 4.6 4.6 0 0 0-2-2.22 4.22 4.22 0 0 1 1.42-1c0 .32-.39 1 .08 1.07s.52-.39.81-.54c.12-.06.36-.07.26.19s-.32.65-.09 1a1.13 1.13 0 0 0 .66.38c.06 0-.34.28-.45.6a.31.31 0 0 0 .18.39c.34.13.93-.21 1.3.16.15.16.07.31-.12.42-.46.29-.52.63-.09 1a2.62 2.62 0 0 1 .57.54 1.42 1.42 0 0 0-.87.29.39.39 0 0 0 0 .62c.22.19.76.39.88.56a6.14 6.14 0 0 1-1.54.74zm12.13-6.92c-.41 1.67-9.41 5.7-10.05 6-.11-.39-.74-.58-1-.77.28-.15.84-.09.95-.44s-.67-.93-.85-1.16c.17-.16.78-.45.51-1a1.14 1.14 0 0 0-1.23-.53h-.15c.22-.28.58-.64.25-.88s-.55 0-.72-.33c.95.12 1.73.25 2.33.38a.14.14 0 0 0 .16-.14c0 .4-.28-2.31 1.14-2.63a3.89 3.89 0 0 1 3.39 1.37.2.2 0 0 0 .2.07c.37-.07 3.44-.7 4.67-.25.14-.01.43.13.4.27z" fill-rule="evenodd"></path></g></g></g></svg>